 <svg  version="1.0" xmlns="http://www.w3.org/2000/svg"  width="585.000000pt" height="600.000000pt" viewBox="0 0 585.000000 600.000000"  preserveAspectRatio="xMidYMid meet">  <g transform="translate(0.000000,600.000000) scale(0.100000,-0.100000)" fill="#ffffff" stroke="none"> <path d="M2605 5950 c-163 -20 -243 -31 -270 -40 -16 -5 -61 -17 -100 -26 -117 -28 -353 -109 -475 -161 -594 -258 -1112 -753 -1420 -1357 -98 -194 -187 -466 -152 -466 6 0 22 4 37 10 23 9 25 14 20 44 -6 28 -4 34 14 39 14 3 21 13 21 29 0 13 4 28 9 33 5 6 42 73 81 150 163 319 262 473 413 649 81 95 300 301 412 389 193 151 464 304 690 391 55 21 109 42 120 47 11 4 54 17 95 29 41 12 86 25 100 30 48 16 166 39 275 55 61 9 126 20 145 25 46 13 328 13 466 0 348 -33 663 -123 979 -279 291 -145 456 -261 726 -516 147 -138 264 -290 407 -525 68 -112 207 -390 231 -460 49 -143 107 -368 121 -470 35 -256 41 -329 40 -485 -1 -161 -15 -392 -25 -425 -3 -8 -9 -53 -14 -100 -15 -127 -65 -333 -116 -470 -7 -19 -20 -60 -30 -90 -36 -111 -184 -387 -290 -540 -28 -41 -64 -96 -79 -122 -27 -46 -27 -47 -7 -58 20 -10 20 -12 5 -43 -62 -120 -347 -410 -518 -527 -11 -8 -37 -27 -56 -42 -52 -42 -54 -43 -72 -51 -10 -3 -18 -11 -18 -18 0 -11 35 8 135 75 136 91 228 168 373 313 320 322 529 667 687 1137 90 267 123 436 161 806 3 36 5 145 5 243 -2 167 -1 178 16 175 17 -3 18 -23 23 -268 4 -194 2 -278 -7 -315 -7 -27 -13 -79 -13 -115 0 -36 -7 -83 -15 -105 -8 -22 -14 -57 -15 -79 0 -21 -6 -59 -14 -85 -8 -25 -22 -80 -32 -121 -39 -173 -123 -393 -221 -580 -37 -69 -81 -153 -98 -186 -17 -34 -41 -75 -53 -92 -12 -16 -22 -34 -22 -38 0 -4 -7 -15 -16 -25 -14 -16 -14 -20 -1 -39 14 -20 16 -18 64 47 126 174 239 389 311 593 41 116 102 354 102 400 0 14 9 45 20 69 11 24 20 62 20 85 0 22 7 63 15 90 12 40 15 119 15 405 0 225 -4 369 -11 391 -6 19 -14 71 -19 115 -21 197 -106 506 -195 715 -153 357 -455 759 -771 1025 -173 145 -200 166 -352 267 -155 104 -429 238 -485 238 -11 0 -31 6 -45 14 -26 13 -89 32 -144 43 -15 3 -33 11 -39 19 -6 8 -19 14 -28 14 -9 0 -29 7 -44 15 -15 8 -49 19 -75 24 -26 5 -76 17 -112 26 -76 19 -203 41 -310 55 -86 10 -486 10 -575 0z"/> <path d="M4660 4475 c-7 -8 -18 -15 -25 -15 -12 0 -117 -42 -201 -81 -23 -10 -44 -19 -48 -19 -4 0 -31 -10 -59 -23 -72 -32 -116 -48 -160 -57 -21 -4 -44 -13 -50 -19 -6 -6 -22 -11 -36 -11 -24 0 -273 -78 -339 -106 -18 -8 -44 -14 -57 -14 -23 0 -67 -16 -128 -46 -16 -8 -34 -14 -42 -14 -7 0 -34 -9 -60 -21 l-48 -21 7 -77 c3 -42 7 -87 9 -101 1 -16 -4 -26 -14 -28 -11 -2 -25 14 -44 50 -35 68 -44 78 -65 78 -24 0 -165 -151 -218 -235 -41 -63 -92 -168 -92 -188 0 -10 -8 -32 -17 -50 -26 -48 -25 -295 1 -357 42 -102 61 -137 95 -177 58 -67 96 -114 99 -122 2 -5 -11 -44 -29 -87 -28 -72 -31 -89 -30 -189 0 -73 5 -125 15 -154 9 -24 16 -60 16 -80 0 -20 6 -61 14 -91 16 -63 29 -225 28 -350 0 -98 -20 -248 -33 -256 -5 -3 -9 -18 -9 -33 0 -16 -6 -34 -14 -40 -7 -6 -16 -24 -19 -39 -3 -15 -17 -40 -32 -56 -14 -16 -38 -47 -52 -69 -14 -22 -48 -63 -76 -91 -28 -28 -80 -87 -116 -131 -35 -44 -67 -82 -70 -85 -12 -10 -101 -195 -101 -210 0 -8 -7 -33 -15 -55 -8 -22 -14 -57 -15 -77 0 -24 -5 -38 -13 -38 -21 0 -37 181 -25 282 12 96 8 91 151 198 53 40 97 75 97 79 0 4 13 21 29 39 98 106 192 273 219 387 26 109 34 293 16 382 -8 43 -18 98 -23 123 -5 25 -20 69 -35 97 -14 29 -26 57 -26 61 0 17 -53 108 -128 222 -63 94 -112 150 -267 305 -104 105 -207 204 -228 220 -21 17 -62 50 -91 75 -53 46 -85 72 -166 136 -25 20 -58 47 -75 60 -16 14 -59 48 -95 75 -36 28 -83 65 -105 83 -22 18 -78 63 -125 101 -47 37 -92 75 -101 84 -9 9 -40 36 -69 61 -28 25 -80 71 -115 104 -38 34 -70 56 -78 53 -20 -7 -30 -68 -17 -101 5 -15 10 -46 10 -69 0 -39 11 -122 41 -317 6 -41 13 -95 15 -120 2 -25 11 -92 19 -150 14 -102 32 -243 41 -325 46 -420 60 -525 100 -720 8 -38 18 -88 22 -110 5 -23 12 -47 17 -55 4 -7 12 -30 16 -49 20 -98 152 -396 204 -460 11 -15 33 -45 49 -68 58 -86 233 -236 318 -273 13 -6 30 -14 38 -19 113 -67 122 -61 151 104 19 104 16 470 -4 565 -26 124 -62 258 -83 308 -8 18 -14 41 -14 50 0 10 -5 23 -11 29 -7 7 -20 38 -31 70 -30 93 -55 154 -122 296 -25 54 -46 101 -46 105 0 14 -208 418 -230 447 -5 6 -32 55 -61 110 -45 86 -84 155 -137 240 -6 11 -16 30 -21 42 -6 11 -15 24 -20 28 -6 3 -11 13 -11 22 0 9 -7 21 -17 28 -9 7 -13 17 -9 24 8 13 85 -64 86 -86 0 -7 6 -16 13 -20 8 -4 22 -24 33 -43 10 -19 35 -55 55 -80 19 -25 95 -135 167 -245 72 -110 140 -211 150 -225 11 -14 29 -45 42 -70 13 -25 33 -58 46 -75 28 -37 194 -373 218 -441 9 -27 21 -62 26 -79 4 -16 14 -46 20 -65 7 -19 16 -48 22 -65 14 -41 26 -95 43 -190 8 -44 19 -107 25 -140 15 -77 7 -463 -10 -525 -7 -25 -18 -63 -26 -85 -7 -22 -16 -58 -20 -80 -4 -22 -10 -44 -14 -50 -15 -20 -32 -229 -21 -258 6 -16 11 -42 11 -59 0 -52 84 -209 151 -282 56 -61 64 -66 102 -66 23 1 53 7 67 15 15 8 53 14 93 15 59 0 67 2 67 19 0 10 -7 24 -15 31 -8 7 -15 18 -15 26 0 7 -7 30 -16 51 -9 21 -23 52 -30 68 -7 17 -18 65 -25 108 -13 82 -4 152 27 225 8 18 14 37 14 42 0 16 79 127 147 207 123 143 145 171 159 194 45 79 96 195 118 270 24 78 26 100 26 270 0 174 -5 220 -40 399 -6 30 -19 115 -29 189 -15 117 -16 141 -4 179 7 25 13 60 13 78 0 47 31 66 85 54 55 -13 279 -14 343 -1 28 6 73 19 100 30 26 10 73 30 106 42 32 13 68 34 80 46 11 13 25 23 29 23 9 0 87 59 100 75 13 17 0 59 -37 123 -20 33 -36 63 -36 66 0 23 87 -21 124 -63 38 -43 59 -30 156 99 58 76 90 128 90 144 0 14 -20 59 -44 101 -26 43 -41 77 -35 81 6 3 37 -15 70 -41 69 -55 74 -53 108 32 50 127 71 189 86 253 7 30 22 83 34 117 11 34 21 78 21 97 0 19 5 47 11 63 16 41 43 266 44 357 0 81 -10 101 -35 71z m-200 -265 c0 -6 -7 -13 -15 -16 -8 -4 -15 -12 -15 -20 0 -7 -6 -17 -13 -21 -7 -4 -28 -28 -47 -53 -62 -82 -73 -93 -316 -335 -369 -367 -659 -644 -685 -653 -17 -7 -9 21 16 54 14 18 25 35 25 39 0 7 118 165 135 180 6 6 27 30 47 55 71 90 139 155 333 315 108 90 141 118 165 139 14 12 52 42 85 68 60 45 174 155 230 222 29 34 55 46 55 26z"/> <path d="M180 3830 c0 -33 11 -38 30 -15 15 18 6 45 -15 45 -10 0 -15 -10 -15 -30z"/> <path d="M156 3732 c-9 -29 3 -51 16 -28 5 10 5 23 0 33 -9 14 -10 14 -16 -5z"/> <path d="M70 3263 c0 -22 2 -25 10 -13 13 20 13 40 0 40 -5 0 -10 -12 -10 -27z"/> <path d="M5212 1257 c-13 -14 -19 -30 -16 -42 4 -15 -11 -35 -61 -80 -55 -50 -113 -130 -102 -141 7 -8 110 100 166 174 55 73 61 86 49 98 -12 12 -17 11 -36 -9z"/> <path d="M4862 848 c-14 -14 -16 -38 -4 -38 10 0 42 33 42 43 0 11 -25 8 -38 -5z"/> <path d="M4746 725 c-20 -30 -13 -32 15 -6 11 10 16 22 11 25 -5 3 -17 -5 -26 -19z"/> <path d="M4395 509 c-177 -98 -351 -181 -485 -233 -69 -26 -140 -54 -158 -62 -18 -8 -43 -14 -55 -14 -12 0 -31 -6 -42 -14 -11 -7 -41 -16 -67 -20 -26 -4 -50 -11 -53 -15 -2 -5 -24 -11 -47 -15 -59 -9 -108 -26 -108 -37 0 -17 90 -6 205 26 28 8 64 16 80 19 83 13 173 44 395 136 69 29 150 66 180 83 30 16 75 41 100 55 39 22 88 55 167 111 24 17 30 41 11 41 -7 0 -62 -28 -123 -61z"/> </g> </svg> 