 <svg  version="1.0" xmlns="http://www.w3.org/2000/svg"  width="900.000000pt" height="147.000000pt" viewBox="0 0 900.000000 147.000000"  preserveAspectRatio="xMidYMid meet">  <g transform="translate(0.000000,147.000000) scale(0.100000,-0.100000)" fill="#2d9f92" stroke="none"> <path d="M0 1387 c0 -46 4 -87 9 -92 5 -6 14 -53 20 -105 6 -52 17 -138 25 -190 8 -52 19 -133 25 -180 7 -47 16 -104 21 -128 6 -23 10 -54 10 -69 0 -27 17 -144 45 -313 8 -47 17 -112 20 -145 3 -33 11 -84 18 -113 l12 -52 86 0 c85 0 87 0 97 28 6 15 13 66 16 114 3 48 11 99 16 113 6 14 10 50 11 78 0 29 5 75 10 102 5 28 14 88 19 135 4 47 16 139 25 205 8 66 22 172 30 235 8 63 23 187 34 275 12 88 21 165 21 172 0 10 -24 13 -90 13 l-90 0 -1 -62 c0 -35 -4 -85 -10 -113 -5 -27 -13 -95 -19 -150 -5 -55 -14 -116 -20 -135 -5 -19 -10 -60 -10 -90 0 -97 -37 -207 -62 -182 -4 4 -12 43 -18 87 -38 282 -52 379 -80 555 -5 36 -10 71 -10 78 0 8 -23 12 -80 12 l-80 0 0 -83z"/> <path d="M810 735 l0 -735 235 0 235 0 0 59 c0 95 6 91 -140 91 -110 0 -129 2 -143 18 -15 16 -17 53 -17 305 0 273 1 287 19 297 11 5 76 10 146 10 l126 0 -3 83 -3 82 -130 3 c-108 2 -132 5 -142 19 -9 12 -13 61 -13 158 0 182 -7 175 162 175 145 0 138 -5 138 101 l0 69 -235 0 -235 0 0 -735z"/> <path d="M1520 735 l0 -735 85 0 85 0 0 134 c0 142 7 166 49 166 27 0 35 -14 84 -145 25 -66 48 -128 52 -137 6 -15 21 -18 97 -18 88 0 89 0 83 23 -11 37 -57 159 -77 205 -29 66 -27 97 13 140 67 72 64 53 67 442 2 195 0 393 -3 438 l-7 84 -59 59 c-32 32 -59 64 -59 69 0 6 -75 10 -205 10 l-205 0 0 -735z m345 541 c32 -21 35 -57 32 -431 -2 -230 -6 -316 -15 -333 -17 -30 -51 -42 -117 -42 -43 0 -56 4 -65 19 -6 13 -10 156 -10 395 0 370 0 376 21 397 18 18 29 21 76 16 30 -3 65 -13 78 -21z"/> <path d="M2320 735 l0 -735 189 0 c104 0 191 4 193 8 2 4 20 18 41 31 50 31 111 115 128 176 10 37 14 167 17 500 3 402 1 456 -14 510 -21 74 -78 151 -138 189 -25 16 -46 35 -46 42 0 11 -36 14 -185 14 l-185 0 0 -735z m297 544 c48 -18 81 -58 93 -113 8 -34 10 -189 8 -476 -3 -405 -4 -427 -23 -460 -34 -59 -149 -102 -183 -68 -9 9 -12 146 -12 554 0 298 3 549 6 558 7 19 68 22 111 5z"/> <path d="M3290 1441 c0 -17 -4 -33 -10 -36 -5 -3 -10 -25 -10 -48 0 -23 -7 -73 -15 -112 -8 -38 -15 -88 -15 -111 0 -22 -7 -63 -15 -90 -8 -27 -15 -71 -15 -99 0 -27 -5 -69 -10 -93 -6 -23 -17 -90 -25 -150 -25 -187 -84 -577 -89 -592 -2 -8 -7 -36 -10 -62 l-6 -48 89 0 88 0 12 98 c6 53 16 141 21 196 6 54 15 106 20 116 6 11 10 32 10 47 0 47 15 53 122 53 90 0 99 -2 112 -22 13 -21 35 -143 56 -323 5 -38 11 -79 14 -90 3 -11 7 -32 11 -47 5 -28 6 -28 85 -28 93 0 90 -6 66 127 -8 43 -22 123 -31 178 -9 55 -23 138 -31 185 -8 47 -19 108 -25 135 -5 28 -14 77 -19 110 -5 33 -16 99 -24 148 -9 48 -22 124 -30 170 -14 84 -31 164 -46 227 -5 19 -12 70 -16 113 l-7 77 -128 0 -129 0 0 -29z m166 -276 c7 -22 17 -85 24 -140 7 -55 16 -125 21 -155 21 -146 22 -165 6 -178 -10 -9 -40 -12 -89 -10 -73 3 -73 3 -77 33 -1 17 2 59 8 95 6 36 20 133 31 215 11 83 23 158 26 168 10 31 38 15 50 -28z"/> <path d="M4050 735 l0 -735 85 0 85 0 1 503 c1 276 4 516 8 532 4 21 12 30 26 30 16 0 20 -8 22 -40 2 -22 10 -80 18 -130 8 -49 22 -144 31 -210 9 -66 22 -163 29 -215 53 -375 64 -452 65 -462 0 -5 65 -8 144 -8 l144 0 6 353 c3 193 8 524 11 735 l6 382 -90 0 -91 0 0 -545 c0 -429 -3 -545 -12 -545 -19 0 -47 77 -53 145 -6 60 -24 193 -51 359 -8 49 -14 104 -14 121 0 18 -4 45 -10 61 -9 28 -19 96 -42 302 l-11 102 -154 0 -153 0 0 -735z"/> <path d="M4972 1403 c-2 -109 -9 -103 132 -103 81 0 126 -4 134 -12 9 -9 12 -167 12 -650 l0 -638 90 0 90 0 -1 636 c0 472 3 639 12 650 9 11 39 14 125 14 l114 0 0 85 0 85 -354 0 -354 0 0 -67z"/> <path d="M6475 1378 c4 -51 11 -110 16 -131 6 -21 14 -75 19 -120 5 -45 14 -113 20 -152 5 -38 17 -119 25 -180 9 -60 20 -137 26 -170 5 -33 14 -91 19 -130 6 -38 16 -115 24 -170 8 -55 19 -138 25 -185 6 -47 14 -97 17 -112 l6 -28 93 0 92 0 6 48 c4 26 13 99 22 162 30 224 45 336 55 434 6 55 15 108 21 117 5 10 9 44 9 76 1 32 5 78 11 103 6 25 14 83 18 130 13 135 31 271 41 318 19 84 21 82 -80 82 l-90 0 0 -32 c0 -18 -7 -82 -15 -143 -8 -60 -27 -202 -41 -314 -14 -113 -30 -213 -35 -223 -31 -58 -53 27 -103 402 -20 146 -36 275 -36 288 0 21 -3 22 -86 22 l-86 0 7 -92z"/> <path d="M7290 735 l0 -735 90 0 90 0 0 735 0 735 -90 0 -90 0 0 -735z"/> <path d="M7710 735 l0 -735 200 0 c195 0 201 1 239 24 44 28 71 69 96 143 14 45 16 89 13 311 l-3 258 -33 62 c-32 62 -32 63 -21 135 7 44 9 128 6 214 -6 142 -6 142 -41 198 -20 31 -52 65 -71 76 -19 12 -35 27 -35 35 0 11 -32 14 -175 14 l-175 0 0 -735z m303 524 c27 -29 27 -31 27 -163 0 -133 0 -135 -26 -155 -32 -25 -86 -27 -108 -5 -13 13 -16 43 -16 174 0 152 1 160 22 174 29 21 66 11 101 -25z m52 -532 c8 -11 14 -92 19 -257 9 -304 7 -308 -111 -313 -86 -4 -83 -14 -83 303 0 213 3 280 13 284 6 3 43 4 81 3 50 -2 71 -7 81 -20z"/> <path d="M8500 735 l0 -735 250 0 250 0 0 69 c0 83 6 81 -171 81 -105 0 -129 3 -140 17 -11 12 -15 77 -17 298 -3 250 -1 284 13 299 14 13 40 16 151 16 l134 0 0 79 c0 63 -3 80 -16 85 -9 3 -72 6 -140 6 l-124 0 -11 28 c-15 40 -8 285 10 305 11 14 34 17 131 17 65 0 132 3 149 6 l31 7 0 78 0 79 -250 0 -250 0 0 -735z"/> </g> </svg> 